<svg width="16" height="16" viewBox="0 0 16 16" fill="none" xmlns="http://www.w3.org/2000/svg">
<path d="M13.4317 13.8863H2.56585C1.91557 13.8854 1.29217 13.6267 0.832397 13.1669C0.372621 12.707 0.114007 12.0835 0.113281 11.4333V4.56195C0.114007 3.91171 0.372636 3.28831 0.832425 2.82852C1.29221 2.36873 1.91561 2.1101 2.56585 2.10938H13.4317C14.082 2.1101 14.7054 2.36871 15.1653 2.82849C15.6251 3.28827 15.8839 3.91167 15.8847 4.56195V11.4333C15.884 12.0836 15.6253 12.7071 15.1654 13.167C14.7056 13.6269 14.082 13.8856 13.4317 13.8863ZM2.56585 3.25223C2.21861 3.2526 1.88569 3.3907 1.64015 3.63624C1.39461 3.88178 1.2565 4.2147 1.25614 4.56195V11.4333C1.25638 11.7806 1.39443 12.1136 1.63998 12.3593C1.88554 12.6049 2.21853 12.7431 2.56585 12.7434H13.4317C13.779 12.7431 14.1121 12.6049 14.3577 12.3593C14.6033 12.1137 14.7415 11.7806 14.7419 11.4333V4.56195C14.7414 4.21466 14.6032 3.88174 14.3575 3.63621C14.1119 3.39068 13.779 3.2526 13.4317 3.25223H2.56585Z" fill="#62D0B6"/>
<path d="M7.99185 9.53718C7.5124 9.5419 7.04535 9.38488 6.66613 9.09147L0.555046 4.22153C0.436532 4.12702 0.360415 3.9893 0.343441 3.83867C0.326466 3.68804 0.370024 3.53684 0.464532 3.41833C0.55904 3.29981 0.696756 3.2237 0.847386 3.20672C0.998015 3.18975 1.14922 3.23331 1.26773 3.32781L7.37699 8.19776C7.55746 8.32576 7.77338 8.39425 7.99464 8.39368C8.2159 8.39311 8.43147 8.3235 8.61127 8.19456L14.6451 3.3301C14.763 3.23498 14.9139 3.1906 15.0645 3.20672C15.2151 3.22284 15.3532 3.29813 15.4483 3.41604C15.5434 3.53395 15.5878 3.68481 15.5717 3.83544C15.5556 3.98607 15.4803 4.12413 15.3624 4.21924L9.33036 9.0837C8.94852 9.38228 8.47653 9.54219 7.99185 9.53718Z" fill="#62D0B6"/>
</svg>
